<?xml version="1.0" encoding="UTF-8" standalone="no"?>
<!DOCTYPE svg PUBLIC "-//W3C//DTD SVG 1.1//EN" "http://www.w3.org/Graphics/SVG/1.1/DTD/svg11.dtd">
<svg width="100%" height="100%" viewBox="0 0 96 96" version="1.1" xmlns="http://www.w3.org/2000/svg" xmlns:xlink="http://www.w3.org/1999/xlink" xml:space="preserve" xmlns:serif="http://www.serif.com/" style="fill-rule:evenodd;clip-rule:evenodd;stroke-linejoin:round;stroke-miterlimit:2;">
    <g>
        <g>
            <g>
                <path d="M64.324,4.774C52.312,0.77 46.305,-1.23 42.152,1.763C38,4.756 38,11.087 38,23.749L38,33.999L28.324,30.775C16.312,26.77 10.305,24.77 6.152,27.763C2,30.756 2,37.087 2,49.749L2,67.585C2,74.542 2,78.021 3.887,80.64C5.774,83.259 9.076,84.36 15.676,86.56L20.002,87.999L20,88.001L33.891,92.63C41.053,95.017 44.634,96.212 48.217,95.661C51.8,95.111 54.858,92.896 60.973,88.468L79.596,74.984C84.624,71.342 87.571,69.203 89.369,66.757C89.551,66.519 89.721,66.27 89.879,66.005C90.05,65.73 90.212,65.452 90.359,65.163C92,61.95 92,58.195 92,50.685L92,28.415C92,21.458 92.001,17.979 90.113,15.36C88.226,12.742 84.924,11.643 78.324,9.442L64.324,4.774Z" style="fill:url(#_Linear1);fill-rule:nonzero;"/>
                <path d="M64.324,4.774C52.312,0.77 46.305,-1.23 42.152,1.763C38,4.756 38,11.087 38,23.749L38,33.999L28.324,30.775C16.312,26.77 10.305,24.77 6.152,27.763C2,30.756 2,37.087 2,49.749L2,67.585C2,74.542 2,78.021 3.887,80.64C5.774,83.259 9.076,84.36 15.676,86.56L20.002,87.999L20,88.001L33.891,92.63C41.053,95.017 44.634,96.212 48.217,95.661C51.8,95.111 54.858,92.896 60.973,88.468L79.596,74.984C84.624,71.342 87.571,69.203 89.369,66.757C89.551,66.519 89.721,66.27 89.879,66.005C90.05,65.73 90.212,65.452 90.359,65.163C92,61.95 92,58.195 92,50.685L92,28.415C92,21.458 92.001,17.979 90.113,15.36C88.226,12.742 84.924,11.643 78.324,9.442L64.324,4.774Z" style="fill:url(#_Radial2);fill-rule:nonzero;"/>
                <path d="M64.324,4.774C52.312,0.77 46.305,-1.23 42.152,1.763C38,4.756 38,11.087 38,23.749L38,33.999L28.324,30.775C16.312,26.77 10.305,24.77 6.152,27.763C2,30.756 2,37.087 2,49.749L2,67.585C2,74.542 2,78.021 3.887,80.64C5.774,83.259 9.076,84.36 15.676,86.56L20.002,87.999L20,88.001L33.891,92.63C41.053,95.017 44.634,96.212 48.217,95.661C51.8,95.111 54.858,92.896 60.973,88.468L79.596,74.984C84.624,71.342 87.571,69.203 89.369,66.757C89.551,66.519 89.721,66.27 89.879,66.005C90.05,65.73 90.212,65.452 90.359,65.163C92,61.95 92,58.195 92,50.685L92,28.415C92,21.458 92.001,17.979 90.113,15.36C88.226,12.742 84.924,11.643 78.324,9.442L64.324,4.774Z" style="fill:url(#_Radial3);fill-rule:nonzero;"/>
                <path d="M56,54.415C56,47.458 56,43.979 54.112,41.36C52.225,38.742 48.925,37.642 42.325,35.441L28.325,30.775C16.312,26.771 10.306,24.769 6.153,27.762C2,30.755 2,37.086 2,49.748L2,67.585C2,74.542 2,78.021 3.888,80.639C5.775,83.258 9.075,84.358 15.675,86.558L29.675,91.225C41.688,95.229 47.694,97.231 51.847,94.238C56,91.245 56,84.914 56,72.251L56,54.415Z" style="fill:url(#_Radial4);fill-rule:nonzero;"/>
                <path d="M56,54.415C56,47.458 56,43.979 54.112,41.36C52.225,38.742 48.925,37.642 42.325,35.441L28.325,30.775C16.312,26.771 10.306,24.769 6.153,27.762C2,30.755 2,37.086 2,49.748L2,67.585C2,74.542 2,78.021 3.888,80.639C5.775,83.258 9.075,84.358 15.675,86.558L29.675,91.225C41.688,95.229 47.694,97.231 51.847,94.238C56,91.245 56,84.914 56,72.251L56,54.415Z" style="fill:url(#_Linear5);fill-rule:nonzero;"/>
                <path d="M92,66.001L92,35.001L56,61.501L2,46L2,82L48.5,97.501L92,66.001Z" style="fill:url(#_Radial6);fill-rule:nonzero;"/>
                <path d="M38.074,15.104C31.303,13.067 27.222,12.55 24.152,14.762C21.079,16.977 20.281,21.02 20.073,28.103C22.464,28.822 25.189,29.731 28.323,30.775L37.999,34L37.999,23.749C37.999,20.457 38.001,17.593 38.074,15.104Z" style="fill:url(#_Linear7);fill-rule:nonzero;"/>
                <path d="M38.074,15.104C31.303,13.067 27.222,12.55 24.152,14.762C21.079,16.977 20.281,21.02 20.073,28.103C22.464,28.822 25.189,29.731 28.323,30.775L37.999,34L37.999,23.749C37.999,20.457 38.001,17.593 38.074,15.104Z" style="fill:url(#_Linear8);fill-rule:nonzero;"/>
                <path d="M38.074,15.104C38.001,17.592 38,20.456 38,23.748L38,41.585C38,48.542 38,52.021 39.888,54.64C41.775,57.258 45.076,58.359 51.676,60.559L56,62C64.003,64.668 68.004,66.001 70.84,64.141C71.011,64.028 71.177,63.909 71.338,63.782C74,61.68 74,57.462 74,49.026L74,41.415C74,34.458 74,30.979 72.112,28.36C70.225,25.742 66.924,24.641 60.324,22.441L46.324,17.774C43.19,16.73 40.464,15.823 38.074,15.104Z" style="fill:url(#_Linear9);fill-rule:nonzero;"/>
                <path d="M38.074,15.104C38.001,17.592 38,20.456 38,23.748L38,41.585C38,48.542 38,52.021 39.888,54.64C41.775,57.258 45.076,58.359 51.676,60.559L56,62C64.003,64.668 68.004,66.001 70.84,64.141C71.011,64.028 71.177,63.909 71.338,63.782C74,61.68 74,57.462 74,49.026L74,41.415C74,34.458 74,30.979 72.112,28.36C70.225,25.742 66.924,24.641 60.324,22.441L46.324,17.774C43.19,16.73 40.464,15.823 38.074,15.104Z" style="fill:url(#_Radial10);fill-rule:nonzero;"/>
                <path d="M20.074,28.104C20.001,30.592 20,33.456 20,36.748L20,54.585C20,61.542 20,65.021 21.888,67.64C23.775,70.258 27.076,71.359 33.676,73.559L37.975,74.992C46.001,77.667 50.015,79.005 52.855,77.131C53.016,77.025 53.172,76.912 53.324,76.793C56,74.691 56,70.461 56,62L56,54.415C56,47.458 56,43.979 54.112,41.36C52.225,38.742 48.924,37.641 42.324,35.441L28.324,30.774C25.19,29.73 22.464,28.823 20.074,28.104Z" style="fill:url(#_Linear11);fill-rule:nonzero;"/>
                <path d="M38,41.585C38,48.542 38,52.021 39.888,54.64C41.775,57.259 45.076,58.359 51.676,60.559L56,62L56,54.415C56,47.458 56,43.979 54.112,41.36C52.225,38.742 48.924,37.641 42.324,35.441L38,34L38,41.585Z" style="fill:url(#_Linear12);fill-rule:nonzero;"/>
            </g>
        </g>
    </g>
    <defs>
        <linearGradient id="_Linear1" x1="0" y1="0" x2="1" y2="0" gradientUnits="userSpaceOnUse" gradientTransform="matrix(27.4999,-67,67,27.4999,53.5,77)"><stop offset="0" style="stop-color:rgb(39,100,231);stop-opacity:1"/><stop offset="0.31" style="stop-color:rgb(139,82,244);stop-opacity:1"/><stop offset="0.54" style="stop-color:rgb(187,69,234);stop-opacity:1"/><stop offset="0.8" style="stop-color:rgb(219,86,198);stop-opacity:1"/><stop offset="1" style="stop-color:rgb(244,98,171);stop-opacity:1"/></linearGradient>
        <radialGradient id="_Radial2" cx="0" cy="0" r="1" gradientUnits="userSpaceOnUse" gradientTransform="matrix(24.5,23.5,-14.8588,15.4911,52.5,45)"><stop offset="0" style="stop-color:rgb(91,42,181);stop-opacity:1"/><stop offset="0.55" style="stop-color:rgb(91,42,181);stop-opacity:1"/><stop offset="1" style="stop-color:rgb(169,49,216);stop-opacity:0"/></radialGradient>
        <radialGradient id="_Radial3" cx="0" cy="0" r="1" gradientUnits="userSpaceOnUse" gradientTransform="matrix(47,15,-7.47828,23.432,44,34)"><stop offset="0" style="stop-color:rgb(149,41,194);stop-opacity:1"/><stop offset="0.53" style="stop-color:rgb(149,41,194);stop-opacity:1"/><stop offset="1" style="stop-color:rgb(221,60,226);stop-opacity:0"/></radialGradient>
        <radialGradient id="_Radial4" cx="0" cy="0" r="1" gradientUnits="userSpaceOnUse" gradientTransform="matrix(-46.9577,-67.3373,67.3373,-46.9577,61.3922,89.3373)"><stop offset="0" style="stop-color:rgb(39,100,231);stop-opacity:1"/><stop offset="0.23" style="stop-color:rgb(0,148,240);stop-opacity:1"/><stop offset="0.44" style="stop-color:rgb(25,178,206);stop-opacity:1"/><stop offset="0.7" style="stop-color:rgb(82,209,124);stop-opacity:1"/><stop offset="1" style="stop-color:rgb(255,214,56);stop-opacity:1"/></radialGradient>
        <linearGradient id="_Linear5" x1="0" y1="0" x2="1" y2="0" gradientUnits="userSpaceOnUse" gradientTransform="matrix(34.3008,0,0,34.3008,19.5444,82.7096)"><stop offset="0" style="stop-color:rgb(22,187,218);stop-opacity:0"/><stop offset="0.54" style="stop-color:rgb(0,148,240);stop-opacity:1"/><stop offset="1" style="stop-color:rgb(39,100,231);stop-opacity:1"/></linearGradient>
        <radialGradient id="_Radial6" cx="0" cy="0" r="1" gradientUnits="userSpaceOnUse" gradientTransform="matrix(23,13,8.90874,-13.0501,43,68)"><stop offset="0" style="stop-color:rgb(27,68,177);stop-opacity:1"/><stop offset="1" style="stop-color:rgb(54,122,242);stop-opacity:0"/></radialGradient>
        <linearGradient id="_Linear7" x1="0" y1="0" x2="1" y2="0" gradientUnits="userSpaceOnUse" gradientTransform="matrix(0.5,-19.5,19.5,0.5,33.5,32.5)"><stop offset="0" style="stop-color:rgb(255,156,112);stop-opacity:1"/><stop offset="1" style="stop-color:rgb(255,211,148);stop-opacity:1"/></linearGradient>
        <linearGradient id="_Linear8" x1="0" y1="0" x2="1" y2="0" gradientUnits="userSpaceOnUse" gradientTransform="matrix(-2,8.5,-8.5,-2,28.5,24.5)"><stop offset="0" style="stop-color:rgb(255,179,87);stop-opacity:0"/><stop offset="1" style="stop-color:rgb(242,74,157);stop-opacity:0.7"/></linearGradient>
        <linearGradient id="_Linear9" x1="0" y1="0" x2="1" y2="0" gradientUnits="userSpaceOnUse" gradientTransform="matrix(0.5,44.5,-44.5,0.5,58,20)"><stop offset="0" style="stop-color:rgb(255,179,87);stop-opacity:1"/><stop offset="0.38" style="stop-color:rgb(251,111,123);stop-opacity:1"/><stop offset="0.66" style="stop-color:rgb(242,74,157);stop-opacity:1"/><stop offset="1" style="stop-color:rgb(221,60,226);stop-opacity:1"/></linearGradient>
        <radialGradient id="_Radial10" cx="0" cy="0" r="1" gradientUnits="userSpaceOnUse" gradientTransform="matrix(23.5,5.29681,-5.29681,23.5,40,54)"><stop offset="0" style="stop-color:rgb(215,37,125);stop-opacity:1"/><stop offset="0.57" style="stop-color:rgb(215,37,125);stop-opacity:1"/><stop offset="1" style="stop-color:rgb(244,98,171);stop-opacity:0"/></radialGradient>
        <linearGradient id="_Linear11" x1="0" y1="0" x2="1" y2="0" gradientUnits="userSpaceOnUse" gradientTransform="matrix(-30.03,-51.6838,51.6838,-30.03,50.03,77.3707)"><stop offset="0" style="stop-color:rgb(15,175,255);stop-opacity:1"/><stop offset="0.55" style="stop-color:rgb(43,218,190);stop-opacity:1"/><stop offset="0.77" style="stop-color:rgb(136,224,108);stop-opacity:1"/><stop offset="1" style="stop-color:rgb(255,214,56);stop-opacity:1"/></linearGradient>
        <linearGradient id="_Linear12" x1="0" y1="0" x2="1" y2="0" gradientUnits="userSpaceOnUse" gradientTransform="matrix(17,6,-6,17,36,44.5)"><stop offset="0" style="stop-color:rgb(118,235,149);stop-opacity:1"/><stop offset="1" style="stop-color:rgb(59,213,255);stop-opacity:0"/></linearGradient>
    </defs>
</svg>
